<?xml version="1.0" encoding="iso-8859-1"?>
<!-- Generator: Adobe Illustrator 16.0.0, SVG Export Plug-In . SVG Version: 6.00 Build 0)  -->
<!DOCTYPE svg PUBLIC "-//W3C//DTD SVG 1.1//EN" "http://www.w3.org/Graphics/SVG/1.1/DTD/svg11.dtd">
<svg version="1.1" id="Capa_1" xmlns="http://www.w3.org/2000/svg" x="0px"
     y="0px"
     width="46.539px" height="46.539px" viewBox="0 0 46.539 46.539" style="enable-background:new 0 0 46.539 46.539;"
     xml:space="preserve">
<g>
	<g>
		<path fill="grey" opacity="0.5" d="M30.508,15.004c-1.133-1.215-2.479-2.168-3.967-2.794c-1.468-0.616-3.066-0.913-4.736-0.828
			c-1.646,0.083-3.205,0.529-4.619,1.258c-1.398,0.719-2.66,1.717-3.729,2.92c-1.06,1.192-1.931,2.593-2.558,4.133
			c-0.623,1.535-1.01,3.219-1.094,4.986c-0.084,1.772,0.142,3.478,0.619,5.045c0.483,1.579,1.231,3.028,2.188,4.277
			c0.971,1.262,2.16,2.321,3.517,3.101c1.377,0.786,2.928,1.286,4.596,1.414c1.69,0.129,3.347-0.143,4.888-0.746
			c1.56-0.613,2.994-1.566,4.229-2.791c1.244-1.236,2.274-2.742,3.015-4.438c0.739-1.704,1.18-3.591,1.239-5.575
			c0.062-1.979-0.264-3.858-0.894-5.555C32.578,17.728,31.656,16.235,30.508,15.004z M29.754,29.005
			c-0.535,1.246-1.285,2.354-2.188,3.269c-0.898,0.91-1.949,1.623-3.093,2.09c-1.133,0.461-2.353,0.681-3.604,0.605
			c-1.239-0.072-2.397-0.425-3.43-0.995c-1.021-0.563-1.918-1.343-2.652-2.276c-0.729-0.926-1.299-2.006-1.67-3.19
			c-0.368-1.177-0.543-2.458-0.481-3.795c0.062-1.331,0.354-2.599,0.826-3.754c0.475-1.159,1.135-2.21,1.938-3.101
			c0.807-0.898,1.76-1.638,2.812-2.163c1.063-0.531,2.23-0.849,3.459-0.891c1.238-0.043,2.425,0.197,3.507,0.674
			c1.095,0.479,2.077,1.201,2.903,2.109c0.832,0.917,1.5,2.023,1.949,3.263c0.453,1.248,0.682,2.628,0.633,4.073
			C30.613,26.375,30.293,27.757,29.754,29.005z"/>
        <path fill="grey" opacity="0.5" d="M46.162,11.808c0.023-1.004-0.162-1.95-0.512-2.799c-0.351-0.844-0.861-1.591-1.498-2.2
			c-0.633-0.606-1.388-1.077-2.226-1.38c-0.83-0.299-1.737-0.43-2.69-0.358l-6.75,0.498l-1.979-3.794
			c-0.071-0.119-0.17-0.243-0.297-0.36c-0.127-0.118-0.285-0.228-0.481-0.319c-0.197-0.091-0.435-0.162-0.718-0.201
			c-0.282-0.039-0.612-0.046-0.998-0.009L27.54,0.932L17.105,1.939l-0.437,0.042c-0.344,0.032-0.641,0.099-0.896,0.186
			c-0.254,0.086-0.469,0.194-0.649,0.314c-0.181,0.119-0.326,0.25-0.443,0.382c-0.121,0.131-0.215,0.263-0.287,0.387l-1.951,3.802
			l-1.025,0.076c-0.049-0.163-0.153-0.311-0.311-0.439c-0.152-0.129-0.355-0.239-0.594-0.325C10.276,6.278,10,6.216,9.699,6.182
			C9.4,6.149,9.076,6.144,8.736,6.17C8.365,6.199,8.011,6.263,7.693,6.357c-0.319,0.092-0.61,0.211-0.856,0.349
			C6.589,6.844,6.384,7.001,6.234,7.169S5.991,7.518,5.963,7.7C5.4,7.896,4.867,8.198,4.385,8.583
			c-0.48,0.383-0.912,0.851-1.277,1.378c-0.365,0.526-0.666,1.115-0.883,1.743c-0.221,0.628-0.355,1.298-0.393,1.987l-1.82,21.852
			c-0.047,0.845,0.047,1.662,0.258,2.418c0.209,0.758,0.533,1.456,0.953,2.059c0.422,0.604,0.938,1.112,1.522,1.488
			c0.591,0.378,1.252,0.623,1.961,0.693l34.343,3.441c0.981,0.1,1.935-0.018,2.812-0.314c0.881-0.299,1.686-0.78,2.371-1.411
			c0.688-0.634,1.254-1.415,1.651-2.306c0.399-0.894,0.633-1.895,0.656-2.961L46.162,11.808z M4.703,16.396
			c0.066,0.061,0.127,0.131,0.178,0.21c0.054,0.079,0.101,0.167,0.134,0.262c0.034,0.096,0.062,0.198,0.077,0.307
			c0.017,0.11,0.021,0.226,0.017,0.346l-0.307,14.36c-0.011,0.188-0.052,0.363-0.115,0.523s-0.154,0.303-0.262,0.42
			c-0.108,0.119-0.232,0.213-0.369,0.274c-0.137,0.062-0.283,0.093-0.437,0.083l-0.36-0.021L4.703,16.396z M42.375,39.83
			c-0.186,0.416-0.448,0.783-0.77,1.082c-0.322,0.301-0.699,0.533-1.117,0.68c-0.414,0.146-0.865,0.21-1.332,0.17L4.879,38.9
			c-0.297-0.025-0.575-0.115-0.832-0.252c-0.254-0.141-0.483-0.33-0.684-0.559c-0.197-0.227-0.365-0.493-0.492-0.784
			c-0.127-0.29-0.213-0.606-0.254-0.938l0.834,0.061c0.519,0.038,1.021-0.057,1.486-0.262c0.469-0.206,0.896-0.521,1.268-0.926
			c0.371-0.404,0.683-0.896,0.904-1.453c0.226-0.557,0.363-1.178,0.396-1.836l0.277-14.555c0.028-0.604-0.041-1.178-0.193-1.698
			c-0.15-0.521-0.387-0.985-0.685-1.379c-0.299-0.393-0.657-0.71-1.065-0.936c-0.404-0.224-0.855-0.354-1.336-0.373
			c0.074-0.326,0.195-0.636,0.352-0.917c0.152-0.279,0.344-0.532,0.562-0.746c0.219-0.215,0.463-0.39,0.727-0.517
			c0.265-0.126,0.548-0.204,0.841-0.221L39.14,8.738c0.455-0.026,0.893,0.043,1.283,0.193c0.396,0.15,0.75,0.382,1.047,0.678
			c0.301,0.298,0.537,0.66,0.697,1.071c0.162,0.411,0.246,0.872,0.231,1.362l0.286,26.407C42.672,38.949,42.562,39.415,42.375,39.83
			z"/>
        <path fill="grey" opacity="0.5" d="M28.311,22.628c-0.009-0.066-0.017-0.149-0.027-0.25c-0.012-0.098-0.027-0.211-0.045-0.341
			c-0.008-0.063-0.019-0.133-0.027-0.205c-0.012-0.071-0.021-0.146-0.039-0.224c-0.014-0.077-0.03-0.157-0.053-0.239
			c-0.021-0.082-0.049-0.165-0.078-0.249c-0.03-0.084-0.059-0.173-0.086-0.267c-0.026-0.094-0.057-0.189-0.088-0.286
			c-0.03-0.098-0.065-0.195-0.108-0.291c-0.043-0.096-0.092-0.191-0.146-0.283c-0.029-0.047-0.059-0.096-0.086-0.145
			c-0.025-0.049-0.057-0.099-0.082-0.147c-0.029-0.05-0.061-0.1-0.086-0.15c-0.029-0.05-0.061-0.101-0.088-0.152
			c-0.018-0.026-0.031-0.051-0.049-0.078c-0.016-0.025-0.027-0.052-0.047-0.078c-0.017-0.025-0.03-0.053-0.047-0.079
			c-0.017-0.027-0.031-0.054-0.045-0.082l-0.232-0.283c-0.038-0.048-0.074-0.095-0.113-0.144c-0.041-0.049-0.08-0.098-0.121-0.147
			c-0.039-0.05-0.08-0.099-0.121-0.147s-0.082-0.101-0.125-0.148c-0.039-0.055-0.084-0.104-0.134-0.148
			c-0.047-0.044-0.101-0.086-0.147-0.126c-0.053-0.04-0.106-0.079-0.16-0.118c-0.053-0.04-0.104-0.081-0.155-0.125
			c-0.101-0.089-0.203-0.172-0.312-0.251c-0.108-0.078-0.221-0.151-0.338-0.222c-0.115-0.069-0.234-0.136-0.354-0.197
			c-0.123-0.063-0.244-0.123-0.369-0.181c-0.062-0.035-0.121-0.065-0.188-0.094c-0.063-0.027-0.133-0.051-0.201-0.072
			c-0.065-0.021-0.137-0.042-0.205-0.062c-0.068-0.02-0.139-0.037-0.207-0.057c-0.065-0.017-0.139-0.034-0.209-0.053
			c-0.068-0.019-0.141-0.039-0.213-0.057c-0.07-0.02-0.141-0.037-0.209-0.051c-0.068-0.016-0.137-0.027-0.201-0.035l-0.748-0.042
			l-0.188-0.01l-0.09-0.006l-0.07,0.003l-0.082-0.007l-0.404,0.052c-0.137,0.005-0.27,0.021-0.399,0.045
			c-0.134,0.022-0.265,0.055-0.394,0.088c-0.129,0.035-0.258,0.074-0.383,0.113c-0.125,0.039-0.25,0.079-0.373,0.116
			c-0.121,0.05-0.238,0.102-0.354,0.154c-0.115,0.052-0.23,0.108-0.343,0.167c-0.108,0.058-0.219,0.119-0.323,0.183
			c-0.105,0.064-0.207,0.133-0.308,0.203c-0.104,0.059-0.198,0.122-0.293,0.192c-0.092,0.069-0.18,0.143-0.266,0.219
			c-0.084,0.075-0.168,0.151-0.248,0.226c-0.08,0.075-0.16,0.146-0.238,0.215c-0.068,0.082-0.139,0.159-0.207,0.233
			c-0.068,0.075-0.135,0.148-0.195,0.221c-0.062,0.071-0.123,0.144-0.18,0.217c-0.055,0.072-0.104,0.146-0.147,0.223
			c-0.05,0.075-0.099,0.146-0.144,0.213s-0.09,0.132-0.131,0.193s-0.078,0.121-0.111,0.178c-0.033,0.058-0.063,0.111-0.086,0.165
			c-0.055,0.109-0.104,0.206-0.144,0.29c-0.041,0.084-0.071,0.156-0.1,0.215c-0.025,0.06-0.047,0.104-0.059,0.136
			c-0.015,0.031-0.021,0.05-0.021,0.053l0.059,0.045c0-0.003,0.013-0.019,0.029-0.045c0.019-0.027,0.045-0.066,0.08-0.117
			c0.035-0.051,0.078-0.113,0.129-0.186c0.051-0.074,0.109-0.159,0.178-0.255c0.031-0.049,0.066-0.099,0.105-0.148
			s0.082-0.1,0.127-0.151c0.045-0.051,0.094-0.104,0.143-0.162c0.052-0.055,0.103-0.113,0.15-0.175
			c0.051-0.063,0.107-0.125,0.168-0.184c0.061-0.061,0.125-0.119,0.189-0.177c0.065-0.059,0.137-0.118,0.205-0.181
			c0.069-0.062,0.141-0.126,0.211-0.192c0.077-0.056,0.155-0.114,0.235-0.175c0.08-0.061,0.162-0.124,0.246-0.185
			s0.17-0.121,0.263-0.178c0.09-0.057,0.184-0.109,0.28-0.155c0.095-0.057,0.191-0.109,0.289-0.159
			c0.101-0.049,0.201-0.095,0.306-0.14c0.104-0.043,0.211-0.086,0.317-0.126c0.107-0.042,0.22-0.082,0.33-0.123
			c0.111-0.03,0.226-0.061,0.341-0.089c0.114-0.029,0.231-0.059,0.35-0.083c0.119-0.025,0.238-0.047,0.355-0.064
			c0.121-0.018,0.241-0.03,0.362-0.035c0.025-0.004,0.052-0.008,0.074-0.011c0.024-0.002,0.051-0.006,0.076-0.008
			c0.022-0.002,0.049-0.004,0.073-0.005c0.025-0.002,0.052-0.002,0.076-0.003c0.096-0.002,0.191,0.001,0.289,0.007
			c0.098,0.007,0.193,0.015,0.293,0.024c0.098,0.01,0.195,0.021,0.295,0.029c0.101,0.009,0.199,0.016,0.299,0.018
			c0.062,0.008,0.123,0.021,0.183,0.033c0.062,0.015,0.121,0.029,0.182,0.045c0.06,0.017,0.119,0.032,0.178,0.049
			c0.062,0.016,0.119,0.03,0.181,0.042c0.061,0.019,0.118,0.033,0.182,0.049c0.059,0.016,0.119,0.031,0.178,0.048
			c0.061,0.017,0.119,0.036,0.176,0.058c0.06,0.022,0.113,0.049,0.168,0.081c0.111,0.051,0.227,0.102,0.334,0.154
			c0.111,0.052,0.224,0.106,0.33,0.163c0.107,0.058,0.215,0.118,0.316,0.184c0.101,0.066,0.201,0.137,0.297,0.213
			c0.102,0.063,0.199,0.134,0.293,0.207c0.092,0.073,0.182,0.151,0.268,0.231c0.088,0.081,0.173,0.163,0.252,0.247
			c0.082,0.083,0.162,0.167,0.242,0.249l0.23,0.236c0.016,0.022,0.032,0.047,0.049,0.069c0.016,0.023,0.033,0.045,0.049,0.068
			c0.019,0.022,0.033,0.045,0.049,0.067c0.02,0.023,0.033,0.048,0.052,0.07c0.026,0.043,0.06,0.087,0.091,0.131
			c0.028,0.044,0.06,0.086,0.09,0.13c0.028,0.042,0.06,0.086,0.091,0.128c0.028,0.042,0.057,0.084,0.086,0.127
			c0.061,0.081,0.112,0.165,0.162,0.251c0.049,0.085,0.092,0.172,0.133,0.257c0.039,0.086,0.076,0.17,0.113,0.251
			c0.039,0.081,0.075,0.157,0.116,0.229c0.039,0.074,0.073,0.148,0.104,0.222c0.031,0.072,0.059,0.145,0.082,0.215
			c0.022,0.07,0.045,0.139,0.063,0.204c0.02,0.064,0.034,0.127,0.054,0.186c0.032,0.118,0.064,0.224,0.092,0.314
			c0.027,0.091,0.051,0.167,0.068,0.229c0.017,0.062,0.031,0.11,0.043,0.144c0.01,0.032,0.014,0.052,0.016,0.055l0.082-0.017
			c0-0.003-0.002-0.023-0.004-0.06C28.322,22.749,28.318,22.697,28.311,22.628z"/>
	</g>
</g>
    <g>
</g>
    <g>
</g>
    <g>
</g>
    <g>
</g>
    <g>
</g>
    <g>
</g>
    <g>
</g>
    <g>
</g>
    <g>
</g>
    <g>
</g>
    <g>
</g>
    <g>
</g>
    <g>
</g>
    <g>
</g>
    <g>
</g>
</svg>
