<?xml version="1.0" encoding="iso-8859-1"?>
<!-- Generator: Adobe Illustrator 19.0.0, SVG Export Plug-In . SVG Version: 6.00 Build 0)  -->
<svg version="1.1" id="Layer_1" xmlns="http://www.w3.org/2000/svg" x="0px"
     y="0px"
     viewBox="0 0 512 512" style="enable-background:new 0 0 512 512;" xml:space="preserve">
<path style="fill:#F0E9DD;" d="M502.157,176.551v271.216c0,11.566-9.387,20.941-20.954,20.941H30.792
	c-11.567,0-20.941-9.374-20.941-20.941V176.551c0-11.566,9.374-20.954,20.941-20.954h77.565c10.07,0,18.892-6.748,21.518-16.477
	l8.626-32.021c2.613-9.728,11.435-16.477,21.505-16.477H351.99c10.07,0,18.892,6.748,21.518,16.477l8.626,32.021
	c2.613,9.728,11.435,16.477,21.505,16.477h77.565C492.77,155.598,502.157,164.985,502.157,176.551z"/>
    <path style="fill:#7A543B;" d="M502.157,389.016v58.752c0,11.566-9.387,20.941-20.954,20.941H30.792
	c-11.567,0-20.941-9.374-20.941-20.941v-58.752H502.157z"/>
    <circle style="fill:#4D4D4D;" cx="255.999" cy="304.602" r="118.153"/>
    <circle style="fill:#999999;" cx="300.414" cy="256.367" r="19.693"/>
    <rect x="34.424" y="119.879" style="fill:#4D4D4D;" width="64.725" height="35.724"/>
    <circle style="fill:#333333;" cx="255.999" cy="304.602" r="28.425"/>
    <rect x="282.099" y="121.192" style="fill:#6BD0E8;" width="65.644" height="34.411"/>
    <path d="M256.001,211.214c-51.498,0-93.395,41.897-93.395,93.393c0,51.498,41.897,93.395,93.395,93.395s93.393-41.897,93.393-93.395
	C349.394,253.111,307.497,211.214,256.001,211.214z M256.001,378.309c-40.639,0-73.701-33.062-73.701-73.701
	c0-40.639,33.062-73.7,73.701-73.7s73.7,33.062,73.7,73.7C329.701,345.248,296.638,378.309,256.001,378.309z"/>
    <path d="M256.001,266.337c-21.103,0-38.272,17.169-38.272,38.271s17.169,38.272,38.272,38.272s38.271-17.169,38.271-38.272
	C294.271,283.504,277.103,266.337,256.001,266.337z M256.001,323.186c-10.244,0-18.579-8.334-18.579-18.579
	c0-10.244,8.334-18.577,18.579-18.577c10.244,0,18.577,8.334,18.577,18.577S266.244,323.186,256.001,323.186z"/>
    <path d="M282.105,111.34c-5.438,0-9.847,4.409-9.847,9.847v34.417c0,5.438,4.409,9.847,9.847,9.847h65.644
	c5.438,0,9.847-4.409,9.847-9.847v-34.417c0-5.438-4.409-9.847-9.847-9.847H282.105z M337.902,145.758h-45.951v-14.724h45.951
	V145.758z"/>
    <path d="M512,259.039c0-5.438-4.409-9.847-9.847-9.847s-9.847,4.409-9.847,9.847v120.129H359.98
	C375.089,358.156,384,332.404,384,304.606c0-21.833-5.597-43.391-16.185-62.342c-2.653-4.749-8.653-6.448-13.398-3.794
	c-4.747,2.652-6.446,8.651-3.794,13.398c8.951,16.024,13.683,34.26,13.683,52.739c0,59.721-48.586,108.308-108.308,108.308
	S147.69,364.328,147.69,304.606c0-59.72,48.586-108.306,108.308-108.306c28.929,0,56.127,11.266,76.584,31.722
	c3.845,3.845,10.08,3.845,13.924,0c3.845-3.845,3.845-10.08,0-13.924c-24.175-24.177-56.319-37.491-90.509-37.491
	c-70.579,0-128.001,57.42-128.001,128c0,27.798,8.912,53.55,24.021,74.561h-82.6c-5.438,0-9.847,4.409-9.847,9.847
	c0,5.438,4.409,9.847,9.847,9.847h100.075c22.798,20.942,53.185,33.746,86.509,33.746s63.71-12.805,86.509-33.746h149.799v48.904
	c0,6.119-4.978,11.099-11.099,11.099H30.792c-6.121,0-11.099-4.978-11.099-11.099v-48.904h16.902c5.438,0,9.847-4.409,9.847-9.847
	c0-5.438-4.409-9.847-9.847-9.847H19.693V176.549c0-6.119,4.978-11.099,11.099-11.099h77.565c14.494,0,27.249-9.774,31.018-23.768
	l8.626-32.019c1.459-5.416,6.395-9.197,12.005-9.197h191.986c5.609,0,10.545,3.782,12.004,9.198l8.626,32.017
	c3.771,13.995,16.525,23.768,31.02,23.768h77.565c6.119,0,11.099,4.978,11.099,11.099v49.668c0,5.438,4.409,9.847,9.847,9.847
	s9.847-4.409,9.847-9.847v-49.668c0-16.978-13.813-30.792-30.792-30.792h-77.565c-5.609,0-10.545-3.782-12.005-9.198l-8.626-32.019
	c-3.771-13.994-16.525-23.768-31.018-23.768H160.008c-14.494,0-27.249,9.773-31.02,23.768l-8.626,32.019
	c-1.402,5.206-6.021,8.892-11.358,9.171v-25.855c0-5.438-4.409-9.847-9.847-9.847H34.426c-5.438,0-9.847,4.409-9.847,9.847v26.514
	C10.569,149.27,0,161.699,0,176.549v271.217c0,16.978,13.813,30.792,30.792,30.792h450.415c16.978,0,30.792-13.813,30.792-30.792
	L512,259.039L512,259.039z M44.273,129.721h45.039v16.037H44.273V129.721z"/>
    <path d="M170.51,128.548c-5.438,0-9.847,4.409-9.847,9.847c0,5.438,4.409,9.847,9.847,9.847h61.706c5.438,0,9.847-4.409,9.847-9.847
	c0-5.438-4.409-9.847-9.847-9.847H170.51z"/>
    <path d="M400.702,81.144c5.438,0,9.847-4.409,9.847-9.847V43.288c0-5.438-4.409-9.847-9.847-9.847s-9.847,4.409-9.847,9.847v28.008
	C390.855,76.735,395.264,81.144,400.702,81.144z"/>
    <path d="M434.122,94.987c2.519,0,5.04-0.961,6.962-2.884l19.805-19.805c3.845-3.845,3.845-10.08,0-13.924
	c-3.845-3.845-10.08-3.845-13.924,0L427.16,78.178c-3.845,3.845-3.845,10.08,0,13.924C429.082,94.025,431.603,94.987,434.122,94.987
	z"/>
    <path d="M438.119,118.561c0,5.438,4.409,9.847,9.847,9.847h28.008c5.438,0,9.847-4.409,9.847-9.847s-4.409-9.847-9.847-9.847
	h-28.008C442.527,108.715,438.119,113.123,438.119,118.561z"/>
    <g>
</g>
    <g>
</g>
    <g>
</g>
    <g>
</g>
    <g>
</g>
    <g>
</g>
    <g>
</g>
    <g>
</g>
    <g>
</g>
    <g>
</g>
    <g>
</g>
    <g>
</g>
    <g>
</g>
    <g>
</g>
    <g>
</g>
</svg>
